<?xml version="1.0" encoding="iso-8859-1"?>
<!-- Uploaded to: SVG Repo, www.svgrepo.com, Generator: SVG Repo Mixer Tools -->
<svg version="1.1" id="Layer_1" xmlns="http://www.w3.org/2000/svg" xmlns:xlink="http://www.w3.org/1999/xlink" 
	 viewBox="0 0 512 512" xml:space="preserve">
<polygon style="fill:#FFAD61;" points="425.397,221.178 349.998,221.178 349.998,406.157 501.801,406.157 501.801,308.306 
	425.397,308.306 "/>
<rect x="29.3" y="149.796" style="fill:#FFE6B8;" width="320.694" height="191.011"/>
<rect x="29.3" y="340.807" style="fill:#FFAD61;" width="320.694" height="65.346"/>
<g>
	<circle style="fill:#FFE6B8;" cx="94.649" cy="406.153" r="36.192"/>
	<circle style="fill:#FFE6B8;" cx="424.389" cy="406.153" r="36.192"/>
	<polygon style="fill:#FFE6B8;" points="426.067,221.178 425.397,221.178 425.397,308.306 501.801,308.306 501.801,307.636 	"/>
</g>
<circle style="fill:#FFAD61;" cx="103.012" cy="162.464" r="92.813"/>
<g>
	<path style="fill:#4D3D36;" d="M379.144,416.356c4.661,20.687,23.172,36.191,45.247,36.191c22.075,0,40.586-15.504,45.248-36.191
		h32.162c5.633,0,10.199-4.566,10.199-10.199v-97.851v-0.67c0-2.472-0.898-4.861-2.527-6.72l-75.734-86.458
		c-1.936-2.21-4.732-3.479-7.672-3.479h-0.67h-65.199V149.8c0-5.633-4.566-10.199-10.199-10.199H203.463
		c-10.428-45.834-51.506-80.148-100.451-80.148C46.212,59.453,0,105.664,0,162.465c0,22.23,7.079,42.839,19.101,59.689V373.84
		h-8.902C4.566,373.84,0,378.406,0,384.039s4.566,10.199,10.199,10.199h8.902v11.918c0,5.633,4.566,10.199,10.199,10.199h20.099
		c4.661,20.687,23.172,36.191,45.247,36.191s40.586-15.504,45.248-36.191h239.251V416.356z M435.596,247.535l44.299,50.572h-44.299
		V247.535z M339.799,330.612H39.499v-87.098c17.511,13.753,39.571,21.963,63.512,21.963c56.8,0,103.012-46.212,103.012-103.012
		c0-0.824-0.012-1.646-0.032-2.465h133.805L339.799,330.612L339.799,330.612z M103.012,79.852c45.554,0,82.614,37.06,82.614,82.614
		s-37.06,82.614-82.614,82.614s-82.614-37.06-82.614-82.614S57.458,79.852,103.012,79.852z M39.499,351.01h300.299v44.948H139.893
		c-4.661-20.688-23.172-36.192-45.248-36.192c-22.075,0-40.586,15.504-45.247,36.192h-9.899
		C39.499,395.958,39.499,351.01,39.499,351.01z M94.646,432.149c-14.332,0-25.992-11.66-25.992-25.992
		c0-14.332,11.66-25.993,25.992-25.993s25.993,11.661,25.993,25.993C120.638,420.489,108.978,432.149,94.646,432.149z
		 M424.391,432.149c-14.332,0-25.992-11.66-25.992-25.992c0-14.332,11.66-25.993,25.992-25.993
		c14.332,0,25.993,11.661,25.993,25.993C450.384,420.489,438.723,432.149,424.391,432.149z M360.197,231.378h55v76.929
		c0,5.633,4.566,10.199,10.199,10.199h66.205v77.453h-21.963c-4.661-20.688-23.172-36.192-45.248-36.192
		c-22.075,0-40.586,15.504-45.247,36.192h-18.947V231.378z"/>
	<path style="fill:#4D3D36;" d="M229.482,319.533h85.673c5.633,0,10.199-4.566,10.199-10.199c0-5.633-4.566-10.199-10.199-10.199
		h-85.673c-5.633,0-10.199,4.566-10.199,10.199C219.283,314.967,223.849,319.533,229.482,319.533z"/>
	<path style="fill:#4D3D36;" d="M197.865,299.135h-6.12c-5.633,0-10.199,4.566-10.199,10.199c0,5.633,4.566,10.199,10.199,10.199
		h6.12c5.633,0,10.199-4.566,10.199-10.199C208.064,303.701,203.498,299.135,197.865,299.135z"/>
	<path style="fill:#4D3D36;" d="M118.238,192.116c1.992,1.992,4.602,2.987,7.212,2.987s5.221-0.995,7.212-2.987
		c3.983-3.983,3.983-10.441,0-14.425l-19.451-19.451v-56.97c0-5.633-4.566-10.199-10.199-10.199s-10.199,4.566-10.199,10.199v61.195
		c0,2.705,1.075,5.299,2.987,7.212L118.238,192.116z"/>
</g>
</svg>